<svg width="22" height="22" viewBox="0 0 22 22" fill="none" xmlns="http://www.w3.org/2000/svg">
<path fill-rule="evenodd" clip-rule="evenodd" d="M6.05089 16.696C9.73666 16.0713 12.2745 16.1252 15.9652 16.7181C16.5126 16.806 16.9231 17.3562 16.9231 18.0111C16.9231 18.311 16.8342 18.6026 16.6738 18.8296C16.3785 19.2474 16.0923 19.6374 15.8144 20H17.2366C17.326 19.8763 17.4159 19.7504 17.5065 19.6222C17.8282 19.1668 18 18.5937 18 18.0111C18 16.7455 17.2042 15.6552 16.1128 15.4799C12.3349 14.873 9.69407 14.8152 5.89528 15.4592C4.79262 15.646 4 16.7539 4 18.0281C4 18.594 4.15874 19.1526 4.45985 19.6064C4.54848 19.74 4.63652 19.8712 4.72412 20H6.11125C5.85242 19.6413 5.58663 19.2561 5.31309 18.8437C5.1606 18.6139 5.07692 18.325 5.07692 18.0281C5.07692 17.3551 5.49364 16.7905 6.05089 16.696Z" fill="black"/>
<path fill-rule="evenodd" clip-rule="evenodd" d="M10.5 11.875C12.364 11.875 13.875 10.364 13.875 8.5C13.875 6.63604 12.364 5.125 10.5 5.125C8.63604 5.125 7.125 6.63604 7.125 8.5C7.125 10.364 8.63604 11.875 10.5 11.875ZM10.5 13C12.9853 13 15 10.9853 15 8.5C15 6.01471 12.9853 4 10.5 4C8.01471 4 6 6.01471 6 8.5C6 10.9853 8.01471 13 10.5 13Z" fill="black"/>
<path fill-rule="evenodd" clip-rule="evenodd" d="M11 20.9C16.4676 20.9 20.9 16.4676 20.9 11C20.9 5.53239 16.4676 1.1 11 1.1C5.53239 1.1 1.1 5.53239 1.1 11C1.1 16.4676 5.53239 20.9 11 20.9ZM11 22C17.0751 22 22 17.0751 22 11C22 4.92487 17.0751 0 11 0C4.92487 0 0 4.92487 0 11C0 17.0751 4.92487 22 11 22Z" fill="black"/>
</svg>
