<svg width="52" height="52" viewBox="0 0 52 52" fill="none" xmlns="http://www.w3.org/2000/svg">
<path fill-rule="evenodd" clip-rule="evenodd" d="M14.3022 39.4634C23.014 37.9867 29.0126 38.1141 37.7359 39.5155C39.0297 39.7234 40 41.0238 40 42.5716C40 43.2805 39.7899 43.9697 39.4108 44.5062C38.7129 45.4939 38.0365 46.4158 37.3795 47.2727H40.7411C40.9524 46.9804 41.165 46.6827 41.379 46.3797C42.1395 45.3034 42.5455 43.9487 42.5455 42.5716C42.5455 39.5803 40.6645 37.0033 38.0848 36.5889C29.1553 35.1543 22.9133 35.0178 13.9343 36.5399C11.328 36.9816 9.45459 39.6002 9.45459 42.6118C9.45459 43.9495 9.82979 45.2697 10.5415 46.3425C10.751 46.6582 10.9591 46.9683 11.1662 47.2727H14.4448C13.833 46.4249 13.2048 45.5143 12.5583 44.5398C12.1978 43.9966 12 43.3136 12 42.6118C12 41.0212 12.985 39.6866 14.3022 39.4634Z" fill="black"/>
<path fill-rule="evenodd" clip-rule="evenodd" d="M24.8181 28.0682C29.2238 28.0682 32.7954 24.4966 32.7954 20.0909C32.7954 15.6852 29.2238 12.1137 24.8181 12.1137C20.4124 12.1137 16.8409 15.6852 16.8409 20.0909C16.8409 24.4966 20.4124 28.0682 24.8181 28.0682ZM24.8181 30.7273C30.6925 30.7273 35.4545 25.9653 35.4545 20.0909C35.4545 14.2166 30.6925 9.45456 24.8181 9.45456C18.9438 9.45456 14.1818 14.2166 14.1818 20.0909C14.1818 25.9653 18.9438 30.7273 24.8181 30.7273Z" fill="black"/>
<path fill-rule="evenodd" clip-rule="evenodd" d="M26 49.4C38.9234 49.4 49.4 38.9234 49.4 26C49.4 13.0766 38.9234 2.6 26 2.6C13.0766 2.6 2.6 13.0766 2.6 26C2.6 38.9234 13.0766 49.4 26 49.4ZM26 52C40.3594 52 52 40.3594 52 26C52 11.6406 40.3594 0 26 0C11.6406 0 0 11.6406 0 26C0 40.3594 11.6406 52 26 52Z" fill="black"/>
</svg>
