<svg width="30" height="30" viewBox="0 0 30 30" fill="none" xmlns="http://www.w3.org/2000/svg">
<g clip-path="url(#clip0_18_323)">
<path d="M27.5 13.75V26.25C27.5 26.5815 27.3683 26.8995 27.1339 27.1339C26.8995 27.3683 26.5815 27.5 26.25 27.5H25C24.6685 27.5 24.3505 27.3683 24.1161 27.1339C23.8817 26.8995 23.75 26.5815 23.75 26.25V25H6.25V26.25C6.25 26.5815 6.1183 26.8995 5.88388 27.1339C5.64946 27.3683 5.33152 27.5 5 27.5H3.75C3.41848 27.5 3.10054 27.3683 2.86612 27.1339C2.6317 26.8995 2.5 26.5815 2.5 26.25V13.75L5.55875 7.6325C5.76642 7.21692 6.08578 6.86742 6.481 6.62322C6.87622 6.37902 7.33167 6.24978 7.79625 6.25H11.25V3.75H18.75V6.25H22.205C22.6694 6.25002 23.1246 6.37937 23.5195 6.62355C23.9145 6.86774 24.2337 7.21711 24.4412 7.6325L27.5 13.75ZM25 16.25H5V22.5H25V16.25ZM5.295 13.75H24.705L22.205 8.75H7.795L5.295 13.75ZM8.125 21.25C7.62772 21.25 7.15081 21.0525 6.79917 20.7008C6.44754 20.3492 6.25 19.8723 6.25 19.375C6.25 18.8777 6.44754 18.4008 6.79917 18.0492C7.15081 17.6975 7.62772 17.5 8.125 17.5C8.62228 17.5 9.09919 17.6975 9.45083 18.0492C9.80246 18.4008 10 18.8777 10 19.375C10 19.8723 9.80246 20.3492 9.45083 20.7008C9.09919 21.0525 8.62228 21.25 8.125 21.25ZM21.875 21.25C21.3777 21.25 20.9008 21.0525 20.5492 20.7008C20.1975 20.3492 20 19.8723 20 19.375C20 18.8777 20.1975 18.4008 20.5492 18.0492C20.9008 17.6975 21.3777 17.5 21.875 17.5C22.3723 17.5 22.8492 17.6975 23.2008 18.0492C23.5525 18.4008 23.75 18.8777 23.75 19.375C23.75 19.8723 23.5525 20.3492 23.2008 20.7008C22.8492 21.0525 22.3723 21.25 21.875 21.25Z" fill="#00B341"/>
</g>
<defs>
<clipPath id="clip0_18_323">
<rect width="30" height="30" fill="white"/>
</clipPath>
</defs>
</svg>
