<svg width="43" height="43" viewBox="0 0 43 43" fill="none" xmlns="http://www.w3.org/2000/svg">
<g clip-path="url(#clip0_43_225)">
<path d="M12.5416 19.7083C12.5416 18.758 12.9192 17.8465 13.5912 17.1745C14.2632 16.5025 15.1746 16.125 16.125 16.125H34.0416C34.992 16.125 35.9034 16.5025 36.5754 17.1745C37.2474 17.8465 37.625 18.758 37.625 19.7083V30.4583C37.625 31.4087 37.2474 32.3201 36.5754 32.9921C35.9034 33.6641 34.992 34.0417 34.0416 34.0417H16.125C15.1746 34.0417 14.2632 33.6641 13.5912 32.9921C12.9192 32.3201 12.5416 31.4087 12.5416 30.4583V19.7083Z" stroke="#00B341" stroke-width="2.66667" stroke-linecap="round" stroke-linejoin="round"/>
<path d="M21.5 25.0833C21.5 26.0337 21.8775 26.9451 22.5495 27.6171C23.2215 28.2891 24.133 28.6667 25.0833 28.6667C26.0337 28.6667 26.9451 28.2891 27.6171 27.6171C28.2891 26.9451 28.6667 26.0337 28.6667 25.0833C28.6667 24.133 28.2891 23.2215 27.6171 22.5495C26.9451 21.8775 26.0337 21.5 25.0833 21.5C24.133 21.5 23.2215 21.8775 22.5495 22.5495C21.8775 23.2215 21.5 24.133 21.5 25.0833Z" stroke="#00B341" stroke-width="2.66667" stroke-linecap="round" stroke-linejoin="round"/>
<path d="M30.4583 16.125V12.5417C30.4583 11.5913 30.0808 10.6799 29.4088 10.0079C28.7368 9.33586 27.8254 8.95833 26.875 8.95833H8.95833C8.00797 8.95833 7.09654 9.33586 6.42453 10.0079C5.75253 10.6799 5.375 11.5913 5.375 12.5417V23.2917C5.375 24.242 5.75253 25.1535 6.42453 25.8255C7.09654 26.4975 8.00797 26.875 8.95833 26.875H12.5417" stroke="#00B341" stroke-width="2.66667" stroke-linecap="round" stroke-linejoin="round"/>
</g>
<defs>
<clipPath id="clip0_43_225">
<rect width="43" height="43" fill="white"/>
</clipPath>
</defs>
</svg>
