<svg width="47" height="47" viewBox="0 0 47 47" fill="none" xmlns="http://www.w3.org/2000/svg">
<g clip-path="url(#clip0_12_263)">
<path d="M5.875 17.625C5.875 17.1056 6.08132 16.6075 6.44858 16.2402C6.81584 15.873 7.31395 15.6667 7.83333 15.6667H39.1667C39.686 15.6667 40.1842 15.873 40.5514 16.2402C40.9187 16.6075 41.125 17.1056 41.125 17.625V21.5417C41.125 22.061 40.9187 22.5591 40.5514 22.9264C40.1842 23.2937 39.686 23.5 39.1667 23.5H7.83333C7.31395 23.5 6.81584 23.2937 6.44858 22.9264C6.08132 22.5591 5.875 22.061 5.875 21.5417V17.625Z" stroke="black" stroke-width="2.66667" stroke-linecap="round" stroke-linejoin="round"/>
<path d="M23.5 15.6667V41.125" stroke="black" stroke-width="2.66667" stroke-linecap="round" stroke-linejoin="round"/>
<path d="M37.2084 23.5V37.2083C37.2084 38.2471 36.7957 39.2433 36.0612 39.9778C35.3267 40.7124 34.3305 41.125 33.2917 41.125H13.7084C12.6696 41.125 11.6734 40.7124 10.9389 39.9778C10.2043 39.2433 9.79169 38.2471 9.79169 37.2083V23.5" stroke="black" stroke-width="2.66667" stroke-linecap="round" stroke-linejoin="round"/>
<path d="M14.6875 15.6667C13.3891 15.6667 12.1438 15.1509 11.2256 14.2327C10.3075 13.3146 9.79169 12.0693 9.79169 10.7708C9.79169 9.47238 10.3075 8.22711 11.2256 7.30896C12.1438 6.39081 13.3891 5.875 14.6875 5.875C16.5767 5.84209 18.428 6.75872 20 8.50536C21.5719 10.252 22.7916 12.7476 23.5 15.6667C24.2084 12.7476 25.4281 10.252 27.0001 8.50536C28.5721 6.75872 30.4233 5.84209 32.3125 5.875C33.611 5.875 34.8563 6.39081 35.7744 7.30896C36.6925 8.22711 37.2084 9.47238 37.2084 10.7708C37.2084 12.0693 36.6925 13.3146 35.7744 14.2327C34.8563 15.1509 33.611 15.6667 32.3125 15.6667" stroke="black" stroke-width="2.66667" stroke-linecap="round" stroke-linejoin="round"/>
</g>
<defs>
<clipPath id="clip0_12_263">
<rect width="47" height="47" fill="white"/>
</clipPath>
</defs>
</svg>
