<svg width="33" height="33" viewBox="0 0 33 33" fill="none" xmlns="http://www.w3.org/2000/svg">
<g clip-path="url(#clip0_12_269)">
<path d="M23.375 11V6.875C23.375 6.51033 23.2301 6.16059 22.9723 5.90273C22.7144 5.64487 22.3647 5.5 22 5.5H8.25C7.52065 5.5 6.82118 5.78973 6.30546 6.30546C5.78973 6.82118 5.5 7.52065 5.5 8.25M5.5 8.25C5.5 8.97935 5.78973 9.67882 6.30546 10.1945C6.82118 10.7103 7.52065 11 8.25 11H24.75C25.1147 11 25.4644 11.1449 25.7223 11.4027C25.9801 11.6606 26.125 12.0103 26.125 12.375V16.5M5.5 8.25V24.75C5.5 25.4793 5.78973 26.1788 6.30546 26.6945C6.82118 27.2103 7.52065 27.5 8.25 27.5H24.75C25.1147 27.5 25.4644 27.3551 25.7223 27.0973C25.9801 26.8394 26.125 26.4897 26.125 26.125V22" stroke="#00B341" stroke-width="2.66667" stroke-linecap="round" stroke-linejoin="round"/>
<path d="M27.5 16.5V22H22C21.2707 22 20.5712 21.7103 20.0555 21.1945C19.5397 20.6788 19.25 19.9793 19.25 19.25C19.25 18.5207 19.5397 17.8212 20.0555 17.3055C20.5712 16.7897 21.2707 16.5 22 16.5H27.5Z" stroke="#00B341" stroke-width="2.66667" stroke-linecap="round" stroke-linejoin="round"/>
</g>
<defs>
<clipPath id="clip0_12_269">
<rect width="33" height="33" fill="white"/>
</clipPath>
</defs>
</svg>
