<svg width="12" height="11" viewBox="0 0 12 11" fill="none" xmlns="http://www.w3.org/2000/svg">
<path d="M1.07631 4.15064L5.71361 10.2056C5.74732 10.2499 5.79068 10.2857 5.84034 10.3103C5.89 10.335 5.94463 10.3478 6 10.3478C6.05537 10.3478 6.11 10.335 6.15966 10.3103C6.20932 10.2857 6.25268 10.2499 6.28639 10.2056L10.9237 4.15064C10.9693 4.09087 10.9957 4.01856 10.9995 3.9433C11.0033 3.86804 10.9843 3.7934 10.9449 3.72931L9.3719 1.17325C9.33951 1.12035 9.29423 1.07667 9.24036 1.04635C9.18649 1.01602 9.12581 1.00007 9.06408 1H2.93592C2.87419 1.00007 2.81351 1.01602 2.75964 1.04635C2.70577 1.07667 2.66049 1.12035 2.6281 1.17325L1.0551 3.72931C1.01574 3.7934 0.996685 3.86804 1.00047 3.9433C1.00426 4.01856 1.03071 4.09087 1.07631 4.15064Z" stroke="black" stroke-width="0.5" stroke-linecap="round" stroke-linejoin="round"/>
<path d="M1.43478 3.82609H10.5652" stroke="black" stroke-width="0.5" stroke-linecap="round" stroke-linejoin="round"/>
<path d="M9.26087 1.35326L8.17391 3.82609L6 1" stroke="black" stroke-width="0.5" stroke-linecap="round" stroke-linejoin="round"/>
<path d="M2.73914 1.35326L3.82609 3.82609L6.00001 1" stroke="black" stroke-width="0.5" stroke-linecap="round" stroke-linejoin="round"/>
<path d="M5.99999 9.91304L3.82608 3.82609" stroke="black" stroke-width="0.5" stroke-linecap="round" stroke-linejoin="round"/>
<path d="M6 9.91304L8.17391 3.82609" stroke="black" stroke-width="0.5" stroke-linecap="round" stroke-linejoin="round"/>
</svg>
