<svg width="84" height="45" viewBox="0 0 84 45" fill="none" xmlns="http://www.w3.org/2000/svg">
<path d="M77.6466 11.2245V23.073C77.0501 24.3158 75.8992 24.9204 74.132 24.9204C73.0482 24.9204 71.804 24.5795 71.804 21.9219V11.2245H67.9955V21.9972C68.006 24.0355 68.5002 25.6127 69.4649 26.6853C70.4453 27.7763 71.8697 28.3295 73.698 28.3295C75.3392 28.3295 76.7015 27.9407 77.7651 27.1709L77.7974 28.0395H81.4548V11.2245H77.6466Z" fill="url(#paint0_linear_26_253)"/>
<path d="M64.2931 24.906C63.9851 24.906 63.5795 24.8598 63.3969 24.6395C63.2267 24.4347 63.137 24.0711 63.137 23.5886V14.4305H66.0598V11.2245H63.137V7.42743H59.3285V11.2245H56.478V14.4305H59.3285V23.5886C59.3285 25.0529 59.6799 26.2143 60.3727 27.04C61.0902 27.8956 62.1463 28.3295 63.5116 28.3295C64.224 28.3295 64.9655 28.2252 65.7158 28.0193L66.1321 27.9053V24.598L65.4478 24.7447C64.9492 24.8518 64.5608 24.906 64.2931 24.906Z" fill="url(#paint1_linear_26_253)"/>
<path d="M49.4041 10.9348C48.0548 10.9348 46.7854 11.3141 45.6315 12.0618C44.4825 12.8062 43.5772 13.8485 42.941 15.1596C42.3128 16.4543 41.9943 17.9397 41.9943 19.574V20.0668C41.9943 22.5451 42.7189 24.5615 44.1477 26.0596C45.5834 27.5657 47.4639 28.3295 49.7367 28.3295C52.5517 28.3295 54.6977 27.2237 56.1146 25.0427L56.3981 24.6063L53.9046 22.6616L53.5573 23.1118C53.112 23.6893 52.5868 24.1583 51.9967 24.5061C51.4318 24.8387 50.7201 25.0075 49.8814 25.0075C48.7062 25.0075 47.7664 24.6013 47.0083 23.7654C46.3415 23.0307 45.9564 22.1112 45.8389 20.967H56.4086V19.2843C56.4086 16.6566 55.7942 14.5929 54.5828 13.1509C53.3468 11.6805 51.6044 10.9348 49.4041 10.9348ZM49.4041 14.2711C50.3607 14.2711 51.0925 14.5755 51.6409 15.2014C52.1498 15.7819 52.462 16.6057 52.5708 17.6304H45.9878C46.189 16.6397 46.5611 15.8481 47.0976 15.2719C47.7244 14.5984 48.4789 14.2711 49.4041 14.2711Z" fill="url(#paint2_linear_26_253)"/>
<path d="M31.073 2.30313H27.149V28.0395H41.0567V24.6307H31.073V2.30313Z" fill="url(#paint3_linear_26_253)"/>
<path d="M23.7535 25.077L23.7533 19.8775C23.7229 18.6254 23.2914 17.623 22.4715 16.8984C21.6632 16.1843 20.5471 15.8222 19.154 15.8222C18.2816 15.8222 17.468 15.9883 16.7358 16.316C15.9925 16.6487 15.3934 17.1097 14.955 17.6865C14.5027 18.2814 14.2735 18.9131 14.2735 19.5643V19.9718H17.0222V19.5643C17.0222 19.204 17.1969 18.8984 17.5558 18.63C17.9519 18.3339 18.4373 18.1898 19.0396 18.1898C19.7086 18.1898 20.2108 18.3516 20.5322 18.6707C20.8571 18.9939 21.0153 19.4258 21.0153 19.9915V20.4698H19.5493C17.8533 20.4698 16.5092 20.8219 15.5539 21.5171C14.5524 22.2483 14.0447 23.2811 14.0447 24.5871C14.0447 25.6705 14.4499 26.578 15.2486 27.2841C16.0324 27.9777 17.0419 28.3295 18.2488 28.3295C19.3439 28.3295 20.3248 27.993 21.1738 27.3277C21.2274 27.566 21.2892 27.7543 21.3601 27.8959L21.4725 28.1209H24.149V27.4624L24.1156 27.385C23.8752 26.8283 23.7535 26.0517 23.7535 25.077ZM18.5297 25.8366C17.9926 25.8366 17.5715 25.7011 17.2421 25.4224C16.9333 25.161 16.7831 24.799 16.7831 24.3162C16.7831 23.9041 16.7831 22.65 19.9134 22.65H21.0153V24.458C20.8053 24.8502 20.4863 25.1661 20.0431 25.4222C19.5672 25.6972 19.0581 25.8366 18.5297 25.8366Z" fill="#383838"/>
<path d="M8.27153 15.8222C7.10275 15.8222 6.09526 16.1803 5.26535 16.889L5.22741 16.0305H2.61096V28.121H5.34918V19.7758C5.57821 19.3357 5.89086 18.9738 6.27979 18.6988C6.68481 18.4125 7.14565 18.2732 7.68892 18.2732C8.33827 18.2732 8.81083 18.4262 9.09329 18.7278C9.3835 19.0382 9.53387 19.5522 9.53983 20.2521V28.121H12.2782V20.2593C12.2498 16.592 10.0837 15.8222 8.27153 15.8222Z" fill="#383838"/>
<defs>
<linearGradient id="paint0_linear_26_253" x1="74.7251" y1="28.3295" x2="74.7251" y2="11.2245" gradientUnits="userSpaceOnUse">
<stop stop-color="#FFE100"/>
<stop offset="0.995305" stop-color="#FFE100"/>
</linearGradient>
<linearGradient id="paint1_linear_26_253" x1="61.3051" y1="28.3295" x2="61.3051" y2="7.42743" gradientUnits="userSpaceOnUse">
<stop stop-color="#FFE100"/>
<stop offset="0.995305" stop-color="#FFE100"/>
</linearGradient>
<linearGradient id="paint2_linear_26_253" x1="49.2014" y1="28.3295" x2="49.2014" y2="10.9348" gradientUnits="userSpaceOnUse">
<stop stop-color="#FFE100"/>
<stop offset="0.995305" stop-color="#FFE100"/>
</linearGradient>
<linearGradient id="paint3_linear_26_253" x1="34.1029" y1="28.0395" x2="34.1029" y2="2.30313" gradientUnits="userSpaceOnUse">
<stop stop-color="#FFE100"/>
<stop offset="0.995305" stop-color="#FFE100"/>
</linearGradient>
</defs>
</svg>
