<svg width="311" height="73" viewBox="0 0 311 73" fill="none" xmlns="http://www.w3.org/2000/svg">
<g clip-path="url(#clip0_43_217)">
<g filter="url(#filter0_d_43_217)">
<rect width="305" height="67" rx="20" fill="url(#paint0_linear_43_217)"/>
</g>
<path d="M26.708 22.083H22.665V30H21.014V20.692H28.359V30H26.708V22.083ZM33.1654 30.13C32.6888 30.13 32.2468 30.052 31.8394 29.896C31.4321 29.74 31.0768 29.5147 30.7734 29.22C30.4788 28.9167 30.2448 28.5483 30.0714 28.115C29.8981 27.6817 29.8114 27.1833 29.8114 26.62C29.8114 26.0567 29.8981 25.5583 30.0714 25.125C30.2448 24.6917 30.4788 24.3277 30.7734 24.033C31.0768 23.7297 31.4321 23.5043 31.8394 23.357C32.2468 23.201 32.6888 23.123 33.1654 23.123C33.6421 23.123 34.0884 23.201 34.5044 23.357C34.9204 23.5043 35.2801 23.7297 35.5834 24.033C35.8868 24.3277 36.1251 24.6917 36.2984 25.125C36.4718 25.5583 36.5584 26.0567 36.5584 26.62C36.5584 27.1833 36.4718 27.6817 36.2984 28.115C36.1251 28.5483 35.8868 28.9167 35.5834 29.22C35.2801 29.5147 34.9204 29.74 34.5044 29.896C34.0884 30.052 33.6421 30.13 33.1654 30.13ZM33.1654 28.843C33.6768 28.843 34.0971 28.6653 34.4264 28.31C34.7644 27.946 34.9334 27.3827 34.9334 26.62C34.9334 26.2473 34.8858 25.9223 34.7904 25.645C34.7038 25.3677 34.5824 25.138 34.4264 24.956C34.2704 24.774 34.0841 24.6397 33.8674 24.553C33.6508 24.4577 33.4168 24.41 33.1654 24.41C32.6714 24.41 32.2598 24.592 31.9304 24.956C31.6011 25.3113 31.4364 25.866 31.4364 26.62C31.4364 27.3827 31.6011 27.946 31.9304 28.31C32.2598 28.6653 32.6714 28.843 33.1654 28.843ZM42.0065 24.527H40.0045C39.9611 25.5757 39.8875 26.438 39.7835 27.114C39.6795 27.7813 39.5148 28.3187 39.2895 28.726H42.0065V24.527ZM43.2155 30H38.5225L38.4185 31.924H37.0275V28.726H37.6385C37.8291 28.5527 37.9808 28.3143 38.0935 28.011C38.2148 27.7077 38.3101 27.3307 38.3795 26.88C38.4575 26.4293 38.5138 25.905 38.5485 25.307C38.5831 24.709 38.6178 24.0243 38.6525 23.253H43.5925V28.726H44.7105V31.924H43.3325L43.2155 30ZM48.0007 27.283H47.4157V30H45.8427V23.253H47.4157V26.022H48.0397L50.1457 23.253H51.7837L49.2747 26.49L51.9137 30H50.0417L48.0007 27.283ZM54.8643 28.037C54.5609 29.5103 53.7593 30.169 52.4593 30.013L52.2643 28.635C52.5936 28.661 52.8536 28.6047 53.0443 28.466C53.2436 28.3187 53.3866 28.0543 53.4733 27.673C53.5773 27.205 53.6423 26.607 53.6683 25.879C53.7029 25.151 53.7203 24.2757 53.7203 23.253H58.5563V30H56.9833V24.527H55.1503C55.1329 25.2463 55.1069 25.9007 55.0723 26.49C55.0376 27.0707 54.9683 27.5863 54.8643 28.037ZM65.9966 30.13C65.5806 30.13 65.1906 30.065 64.8266 29.935C64.4626 29.805 64.142 29.6143 63.8646 29.363C63.5873 29.1117 63.3533 28.804 63.1626 28.44C62.9806 28.076 62.8636 27.6557 62.8116 27.179H61.8756V30H60.3026V23.253H61.8756V25.905H62.8376C62.8983 25.4543 63.0196 25.0557 63.2016 24.709C63.3923 24.3623 63.6263 24.072 63.9036 23.838C64.1896 23.604 64.506 23.4263 64.8526 23.305C65.208 23.1837 65.5893 23.123 65.9966 23.123C66.456 23.123 66.885 23.201 67.2836 23.357C67.6823 23.5043 68.0246 23.7297 68.3106 24.033C68.6053 24.3277 68.835 24.6917 68.9996 25.125C69.1643 25.5583 69.2466 26.0567 69.2466 26.62C69.2466 27.1833 69.1643 27.6817 68.9996 28.115C68.835 28.5483 68.6053 28.9167 68.3106 29.22C68.0246 29.5147 67.6823 29.74 67.2836 29.896C66.885 30.052 66.456 30.13 65.9966 30.13ZM65.9966 28.83C66.4646 28.83 66.8503 28.6523 67.1536 28.297C67.4656 27.933 67.6216 27.374 67.6216 26.62C67.6216 25.866 67.4656 25.3113 67.1536 24.956C66.8503 24.592 66.4646 24.41 65.9966 24.41C65.5373 24.41 65.1516 24.592 64.8396 24.956C64.5363 25.32 64.3846 25.8747 64.3846 26.62C64.3846 27.3653 64.5363 27.92 64.8396 28.284C65.1516 28.648 65.5373 28.83 65.9966 28.83ZM74.4647 30V27.062C74.2654 27.2613 73.9967 27.426 73.6587 27.556C73.3294 27.686 72.9524 27.751 72.5277 27.751C71.8171 27.751 71.2581 27.5517 70.8507 27.153C70.4521 26.7457 70.2527 26.1303 70.2527 25.307V23.253H71.8387V25.229C71.8387 25.671 71.9384 25.983 72.1377 26.165C72.3371 26.347 72.6101 26.438 72.9567 26.438C73.3207 26.438 73.6284 26.373 73.8797 26.243C74.1397 26.1043 74.3347 25.9223 74.4647 25.697V23.253H76.0377V30H74.4647ZM77.7841 23.253H79.3441V27.92L82.5681 23.253H84.1151V30H82.5551V25.346L79.3441 30H77.7841V23.253ZM88.9523 24.527V30H87.3793V24.527H85.3903V23.253H90.9803V24.527H88.9523ZM95.0297 24.345C94.579 24.345 94.2064 24.475 93.9117 24.735C93.6257 24.995 93.435 25.385 93.3397 25.905H96.4467C96.464 25.385 96.3427 24.995 96.0827 24.735C95.8314 24.475 95.4804 24.345 95.0297 24.345ZM97.8377 29.48C97.7944 29.5147 97.7077 29.5667 97.5777 29.636C97.4564 29.7053 97.2917 29.779 97.0837 29.857C96.8844 29.9263 96.6417 29.987 96.3557 30.039C96.0697 30.0997 95.7404 30.13 95.3677 30.13C94.1284 30.13 93.201 29.8223 92.5857 29.207C91.979 28.5917 91.6757 27.7293 91.6757 26.62C91.6757 26.074 91.758 25.5843 91.9227 25.151C92.0874 24.7177 92.317 24.3537 92.6117 24.059C92.9064 23.7557 93.2574 23.526 93.6647 23.37C94.0807 23.2053 94.5357 23.123 95.0297 23.123C95.5324 23.123 95.9874 23.2053 96.3947 23.37C96.802 23.5347 97.1357 23.7817 97.3957 24.111C97.6644 24.4403 97.8507 24.852 97.9547 25.346C98.0587 25.84 98.0587 26.412 97.9547 27.062H93.3137C93.3744 27.6513 93.5737 28.0933 93.9117 28.388C94.2584 28.6827 94.7697 28.83 95.4457 28.83C95.723 28.83 95.9744 28.8083 96.1997 28.765C96.4337 28.713 96.633 28.6567 96.7977 28.596C96.971 28.5267 97.114 28.4617 97.2267 28.401C97.348 28.3317 97.4347 28.2753 97.4867 28.232L97.8377 29.48ZM106.182 24.527H103.504V30H101.931V23.253H107.755V30H106.182V24.527ZM112.435 30.13C111.958 30.13 111.516 30.052 111.109 29.896C110.702 29.74 110.346 29.5147 110.043 29.22C109.748 28.9167 109.514 28.5483 109.341 28.115C109.168 27.6817 109.081 27.1833 109.081 26.62C109.081 26.0567 109.168 25.5583 109.341 25.125C109.514 24.6917 109.748 24.3277 110.043 24.033C110.346 23.7297 110.702 23.5043 111.109 23.357C111.516 23.201 111.958 23.123 112.435 23.123C112.912 23.123 113.358 23.201 113.774 23.357C114.19 23.5043 114.55 23.7297 114.853 24.033C115.156 24.3277 115.395 24.6917 115.568 25.125C115.741 25.5583 115.828 26.0567 115.828 26.62C115.828 27.1833 115.741 27.6817 115.568 28.115C115.395 28.5483 115.156 28.9167 114.853 29.22C114.55 29.5147 114.19 29.74 113.774 29.896C113.358 30.052 112.912 30.13 112.435 30.13ZM112.435 28.843C112.946 28.843 113.367 28.6653 113.696 28.31C114.034 27.946 114.203 27.3827 114.203 26.62C114.203 26.2473 114.155 25.9223 114.06 25.645C113.973 25.3677 113.852 25.138 113.696 24.956C113.54 24.774 113.354 24.6397 113.137 24.553C112.92 24.4577 112.686 24.41 112.435 24.41C111.941 24.41 111.529 24.592 111.2 24.956C110.871 25.3113 110.706 25.866 110.706 26.62C110.706 27.3827 110.871 27.946 111.2 28.31C111.529 28.6653 111.941 28.843 112.435 28.843ZM121.276 24.527H119.274C119.231 25.5757 119.157 26.438 119.053 27.114C118.949 27.7813 118.784 28.3187 118.559 28.726H121.276V24.527ZM122.485 30H117.792L117.688 31.924H116.297V28.726H116.908C117.099 28.5527 117.25 28.3143 117.363 28.011C117.484 27.7077 117.58 27.3307 117.649 26.88C117.727 26.4293 117.783 25.905 117.818 25.307C117.853 24.709 117.887 24.0243 117.922 23.253H122.862V28.726H123.98V31.924H122.602L122.485 30ZM129.363 24.527H126.685V30H125.112V23.253H130.936V30H129.363V24.527ZM132.679 23.253H134.239V27.92L137.463 23.253H139.01V30H137.45V25.346L134.239 30H132.679V23.253ZM143.925 30.13C143.388 30.13 142.898 30.052 142.456 29.896C142.014 29.74 141.637 29.5147 141.325 29.22C141.013 28.9167 140.77 28.5483 140.597 28.115C140.424 27.6817 140.337 27.1877 140.337 26.633C140.337 26.087 140.424 25.5973 140.597 25.164C140.77 24.722 141.013 24.3537 141.325 24.059C141.637 23.7557 142.01 23.526 142.443 23.37C142.876 23.2053 143.349 23.123 143.86 23.123C144.328 23.123 144.735 23.175 145.082 23.279C145.437 23.3743 145.723 23.5 145.94 23.656L145.615 24.878C145.39 24.748 145.143 24.6397 144.874 24.553C144.614 24.4577 144.289 24.41 143.899 24.41C143.301 24.41 142.829 24.5963 142.482 24.969C142.135 25.333 141.962 25.8877 141.962 26.633C141.962 27.3523 142.14 27.8983 142.495 28.271C142.85 28.6437 143.344 28.83 143.977 28.83C144.332 28.83 144.636 28.7867 144.887 28.7C145.138 28.6133 145.377 28.505 145.602 28.375L145.927 29.597C145.702 29.7443 145.429 29.87 145.108 29.974C144.787 30.078 144.393 30.13 143.925 30.13ZM149.462 27.283H148.877V30H147.304V23.253H148.877V26.022H149.501L151.607 23.253H153.245L150.736 26.49L153.375 30H151.503L149.462 27.283ZM155.258 32.431C155.059 32.431 154.86 32.4137 154.66 32.379C154.461 32.353 154.301 32.314 154.179 32.262L154.374 30.988C154.47 31.0227 154.582 31.053 154.712 31.079C154.842 31.105 154.994 31.118 155.167 31.118C155.436 31.118 155.661 31.0573 155.843 30.936C156.025 30.8233 156.186 30.6457 156.324 30.403L153.698 23.253H155.375L157.143 28.401L158.898 23.253H160.38L158.027 29.922C157.88 30.3293 157.724 30.689 157.559 31.001C157.395 31.313 157.204 31.573 156.987 31.781C156.771 31.9977 156.519 32.158 156.233 32.262C155.956 32.3747 155.631 32.431 155.258 32.431ZM20.871 39.253H22.431V43.92L25.655 39.253H27.202V46H25.642V41.346L22.431 46H20.871V39.253ZM33.148 46.13C32.68 46.13 32.277 46.078 31.939 45.974C31.6096 45.8613 31.3366 45.727 31.12 45.571L31.445 44.349C31.6703 44.505 31.913 44.6263 32.173 44.713C32.433 44.791 32.7406 44.83 33.096 44.83C34.2746 44.83 34.9463 44.2883 35.111 43.205H32.55V41.931H35.085C34.9896 41.437 34.786 41.0643 34.474 40.813C34.162 40.553 33.7416 40.423 33.213 40.423C32.8316 40.423 32.5023 40.4663 32.225 40.553C31.9476 40.6397 31.692 40.7567 31.458 40.904L31.146 39.669C31.3713 39.5217 31.653 39.396 31.991 39.292C32.3376 39.1793 32.758 39.123 33.252 39.123C33.7893 39.123 34.2703 39.2053 34.695 39.37C35.1283 39.526 35.4966 39.7557 35.8 40.059C36.1033 40.3537 36.333 40.7177 36.489 41.151C36.6536 41.5843 36.736 42.074 36.736 42.62C36.736 43.1747 36.6536 43.6687 36.489 44.102C36.3243 44.5353 36.086 44.9037 35.774 45.207C35.462 45.5017 35.085 45.7313 34.643 45.896C34.201 46.052 33.7026 46.13 33.148 46.13ZM40.1804 43.283H39.5954V46H38.0224V39.253H39.5954V42.022H40.2194L42.3254 39.253H43.9634L41.4544 42.49L44.0934 46H42.2214L40.1804 43.283ZM47.6889 46.13C47.2122 46.13 46.7702 46.052 46.3629 45.896C45.9555 45.74 45.6002 45.5147 45.2969 45.22C45.0022 44.9167 44.7682 44.5483 44.5949 44.115C44.4215 43.6817 44.3349 43.1833 44.3349 42.62C44.3349 42.0567 44.4215 41.5583 44.5949 41.125C44.7682 40.6917 45.0022 40.3277 45.2969 40.033C45.6002 39.7297 45.9555 39.5043 46.3629 39.357C46.7702 39.201 47.2122 39.123 47.6889 39.123C48.1655 39.123 48.6119 39.201 49.0279 39.357C49.4439 39.5043 49.8035 39.7297 50.1069 40.033C50.4102 40.3277 50.6485 40.6917 50.8219 41.125C50.9952 41.5583 51.0819 42.0567 51.0819 42.62C51.0819 43.1833 50.9952 43.6817 50.8219 44.115C50.6485 44.5483 50.4102 44.9167 50.1069 45.22C49.8035 45.5147 49.4439 45.74 49.0279 45.896C48.6119 46.052 48.1655 46.13 47.6889 46.13ZM47.6889 44.843C48.2002 44.843 48.6205 44.6653 48.9499 44.31C49.2879 43.946 49.4569 43.3827 49.4569 42.62C49.4569 42.2473 49.4092 41.9223 49.3139 41.645C49.2272 41.3677 49.1059 41.138 48.9499 40.956C48.7939 40.774 48.6075 40.6397 48.3909 40.553C48.1742 40.4577 47.9402 40.41 47.6889 40.41C47.1949 40.41 46.7832 40.592 46.4539 40.956C46.1245 41.3113 45.9599 41.866 45.9599 42.62C45.9599 43.3827 46.1245 43.946 46.4539 44.31C46.7832 44.6653 47.1949 44.843 47.6889 44.843ZM56.7875 43.179H53.9665V46H52.3935V39.253H53.9665V41.905H56.7875V39.253H58.3735V46H56.7875V43.179ZM63.0375 46.13C62.5608 46.13 62.1188 46.052 61.7115 45.896C61.3042 45.74 60.9488 45.5147 60.6455 45.22C60.3508 44.9167 60.1168 44.5483 59.9435 44.115C59.7702 43.6817 59.6835 43.1833 59.6835 42.62C59.6835 42.0567 59.7702 41.5583 59.9435 41.125C60.1168 40.6917 60.3508 40.3277 60.6455 40.033C60.9488 39.7297 61.3042 39.5043 61.7115 39.357C62.1188 39.201 62.5608 39.123 63.0375 39.123C63.5142 39.123 63.9605 39.201 64.3765 39.357C64.7925 39.5043 65.1522 39.7297 65.4555 40.033C65.7588 40.3277 65.9972 40.6917 66.1705 41.125C66.3438 41.5583 66.4305 42.0567 66.4305 42.62C66.4305 43.1833 66.3438 43.6817 66.1705 44.115C65.9972 44.5483 65.7588 44.9167 65.4555 45.22C65.1522 45.5147 64.7925 45.74 64.3765 45.896C63.9605 46.052 63.5142 46.13 63.0375 46.13ZM63.0375 44.843C63.5488 44.843 63.9692 44.6653 64.2985 44.31C64.6365 43.946 64.8055 43.3827 64.8055 42.62C64.8055 42.2473 64.7578 41.9223 64.6625 41.645C64.5758 41.3677 64.4545 41.138 64.2985 40.956C64.1425 40.774 63.9562 40.6397 63.7395 40.553C63.5228 40.4577 63.2888 40.41 63.0375 40.41C62.5435 40.41 62.1318 40.592 61.8025 40.956C61.4732 41.3113 61.3085 41.866 61.3085 42.62C61.3085 43.3827 61.4732 43.946 61.8025 44.31C62.1318 44.6653 62.5435 44.843 63.0375 44.843ZM69.1461 41.047V46H67.7421V39.253H69.9001L71.6681 43.361L73.5271 39.253H75.6201V46H74.0471V41.047L72.0971 45.376H71.0051L69.1461 41.047ZM78.9251 42.633V44.778H79.8741C80.2815 44.778 80.6108 44.6957 80.8621 44.531C81.1135 44.3663 81.2391 44.0933 81.2391 43.712C81.2391 43.3307 81.1265 43.0577 80.9011 42.893C80.6758 42.7197 80.3508 42.633 79.9261 42.633H78.9251ZM77.3391 39.253H78.9251V41.411H79.9261C80.8535 41.411 81.5728 41.593 82.0841 41.957C82.6041 42.321 82.8641 42.8843 82.8641 43.647C82.8641 44.0457 82.7905 44.3923 82.6431 44.687C82.4958 44.9817 82.2878 45.2287 82.0191 45.428C81.7591 45.6187 81.4428 45.7617 81.0701 45.857C80.7061 45.9523 80.3075 46 79.8741 46H77.3391V39.253ZM86.5275 40.527V46H84.9545V40.527H82.9655V39.253H88.5555V40.527H86.5275ZM92.6049 40.345C92.1542 40.345 91.7816 40.475 91.4869 40.735C91.2009 40.995 91.0102 41.385 90.9149 41.905H94.0219C94.0392 41.385 93.9179 40.995 93.6579 40.735C93.4066 40.475 93.0556 40.345 92.6049 40.345ZM95.4129 45.48C95.3696 45.5147 95.2829 45.5667 95.1529 45.636C95.0316 45.7053 94.8669 45.779 94.6589 45.857C94.4596 45.9263 94.2169 45.987 93.9309 46.039C93.6449 46.0997 93.3156 46.13 92.9429 46.13C91.7036 46.13 90.7762 45.8223 90.1609 45.207C89.5542 44.5917 89.2509 43.7293 89.2509 42.62C89.2509 42.074 89.3332 41.5843 89.4979 41.151C89.6626 40.7177 89.8922 40.3537 90.1869 40.059C90.4816 39.7557 90.8326 39.526 91.2399 39.37C91.6559 39.2053 92.1109 39.123 92.6049 39.123C93.1076 39.123 93.5626 39.2053 93.9699 39.37C94.3772 39.5347 94.7109 39.7817 94.9709 40.111C95.2396 40.4403 95.4259 40.852 95.5299 41.346C95.6339 41.84 95.6339 42.412 95.5299 43.062H90.8889C90.9496 43.6513 91.1489 44.0933 91.4869 44.388C91.8336 44.6827 92.3449 44.83 93.0209 44.83C93.2982 44.83 93.5496 44.8083 93.7749 44.765C94.0089 44.713 94.2082 44.6567 94.3729 44.596C94.5462 44.5267 94.6892 44.4617 94.8019 44.401C94.9232 44.3317 95.0099 44.2753 95.0619 44.232L95.4129 45.48ZM103.9 43.179H101.079V46H99.5058V39.253H101.079V41.905H103.9V39.253H105.486V46H103.9V43.179ZM109.37 44.921C109.578 44.921 109.764 44.8907 109.929 44.83C110.093 44.7693 110.241 44.6957 110.371 44.609C110.509 44.5137 110.626 44.4097 110.722 44.297C110.826 44.1843 110.912 44.0717 110.982 43.959V42.932H110.215C109.565 42.932 109.101 43.0273 108.824 43.218C108.546 43.4087 108.408 43.6687 108.408 43.998C108.408 44.284 108.49 44.5093 108.655 44.674C108.819 44.8387 109.058 44.921 109.37 44.921ZM111.151 46C111.133 45.8873 111.112 45.74 111.086 45.558C111.068 45.376 111.055 45.2027 111.047 45.038C110.951 45.1767 110.839 45.311 110.709 45.441C110.579 45.571 110.427 45.688 110.254 45.792C110.08 45.896 109.881 45.9783 109.656 46.039C109.439 46.0997 109.196 46.13 108.928 46.13C108.642 46.13 108.369 46.0867 108.109 46C107.857 45.922 107.636 45.8007 107.446 45.636C107.255 45.4713 107.103 45.2677 106.991 45.025C106.887 44.7823 106.835 44.4963 106.835 44.167C106.835 43.439 107.103 42.8843 107.641 42.503C108.178 42.113 109.01 41.918 110.137 41.918H110.982V41.58C110.982 41.138 110.865 40.8347 110.631 40.67C110.397 40.4967 110.041 40.41 109.565 40.41C109.149 40.41 108.767 40.4663 108.421 40.579C108.083 40.6917 107.775 40.8217 107.498 40.969L107.173 39.721C107.45 39.5737 107.81 39.4393 108.252 39.318C108.702 39.188 109.201 39.123 109.747 39.123C110.639 39.123 111.333 39.3093 111.827 39.682C112.321 40.046 112.568 40.6353 112.568 41.45V44.908C112.568 44.986 112.568 45.077 112.568 45.181C112.576 45.2763 112.581 45.376 112.581 45.48C112.589 45.584 112.594 45.6837 112.594 45.779C112.602 45.8657 112.611 45.9393 112.62 46H111.151ZM121.022 40.527H118.344V46H116.771V39.253H122.595V46H121.022V40.527ZM127.276 46.13C126.799 46.13 126.357 46.052 125.95 45.896C125.542 45.74 125.187 45.5147 124.884 45.22C124.589 44.9167 124.355 44.5483 124.182 44.115C124.008 43.6817 123.922 43.1833 123.922 42.62C123.922 42.0567 124.008 41.5583 124.182 41.125C124.355 40.6917 124.589 40.3277 124.884 40.033C125.187 39.7297 125.542 39.5043 125.95 39.357C126.357 39.201 126.799 39.123 127.276 39.123C127.752 39.123 128.199 39.201 128.615 39.357C129.031 39.5043 129.39 39.7297 129.694 40.033C129.997 40.3277 130.235 40.6917 130.409 41.125C130.582 41.5583 130.669 42.0567 130.669 42.62C130.669 43.1833 130.582 43.6817 130.409 44.115C130.235 44.5483 129.997 44.9167 129.694 45.22C129.39 45.5147 129.031 45.74 128.615 45.896C128.199 46.052 127.752 46.13 127.276 46.13ZM127.276 44.843C127.787 44.843 128.207 44.6653 128.537 44.31C128.875 43.946 129.044 43.3827 129.044 42.62C129.044 42.2473 128.996 41.9223 128.901 41.645C128.814 41.3677 128.693 41.138 128.537 40.956C128.381 40.774 128.194 40.6397 127.978 40.553C127.761 40.4577 127.527 40.41 127.276 40.41C126.782 40.41 126.37 40.592 126.041 40.956C125.711 41.3113 125.547 41.866 125.547 42.62C125.547 43.3827 125.711 43.946 126.041 44.31C126.37 44.6653 126.782 44.843 127.276 44.843ZM134.918 40.345C134.468 40.345 134.095 40.475 133.8 40.735C133.514 40.995 133.324 41.385 133.228 41.905H136.335C136.353 41.385 136.231 40.995 135.971 40.735C135.72 40.475 135.369 40.345 134.918 40.345ZM137.726 45.48C137.683 45.5147 137.596 45.5667 137.466 45.636C137.345 45.7053 137.18 45.779 136.972 45.857C136.773 45.9263 136.53 45.987 136.244 46.039C135.958 46.0997 135.629 46.13 135.256 46.13C134.017 46.13 133.09 45.8223 132.474 45.207C131.868 44.5917 131.564 43.7293 131.564 42.62C131.564 42.074 131.647 41.5843 131.811 41.151C131.976 40.7177 132.206 40.3537 132.5 40.059C132.795 39.7557 133.146 39.526 133.553 39.37C133.969 39.2053 134.424 39.123 134.918 39.123C135.421 39.123 135.876 39.2053 136.283 39.37C136.691 39.5347 137.024 39.7817 137.284 40.111C137.553 40.4403 137.739 40.852 137.843 41.346C137.947 41.84 137.947 42.412 137.843 43.062H133.202C133.263 43.6513 133.462 44.0933 133.8 44.388C134.147 44.6827 134.658 44.83 135.334 44.83C135.612 44.83 135.863 44.8083 136.088 44.765C136.322 44.713 136.522 44.6567 136.686 44.596C136.86 44.5267 137.003 44.4617 137.115 44.401C137.237 44.3317 137.323 44.2753 137.375 44.232L137.726 45.48ZM141.088 46.13C140.49 46.13 140.001 46.0737 139.619 45.961C139.247 45.8397 138.965 45.7097 138.774 45.571L139.216 44.349C139.424 44.479 139.68 44.6003 139.983 44.713C140.287 44.817 140.638 44.869 141.036 44.869C141.444 44.869 141.773 44.7997 142.024 44.661C142.284 44.5223 142.414 44.297 142.414 43.985C142.414 43.6817 142.306 43.465 142.089 43.335C141.873 43.205 141.53 43.14 141.062 43.14H140.1V41.957H141.088C141.452 41.957 141.73 41.8963 141.92 41.775C142.111 41.645 142.206 41.4413 142.206 41.164C142.206 40.8693 142.094 40.6657 141.868 40.553C141.643 40.4403 141.366 40.384 141.036 40.384C140.672 40.384 140.343 40.436 140.048 40.54C139.754 40.6353 139.494 40.7523 139.268 40.891L138.956 39.682C139.173 39.552 139.468 39.4263 139.84 39.305C140.222 39.1837 140.664 39.123 141.166 39.123C142.007 39.123 142.644 39.2747 143.077 39.578C143.519 39.8813 143.74 40.3233 143.74 40.904C143.74 41.346 143.615 41.6883 143.363 41.931C143.112 42.1737 142.748 42.3513 142.271 42.464C142.852 42.542 143.281 42.7067 143.558 42.958C143.844 43.2093 143.987 43.5777 143.987 44.063C143.987 44.4183 143.909 44.726 143.753 44.986C143.597 45.246 143.385 45.4627 143.116 45.636C142.856 45.8007 142.549 45.922 142.193 46C141.847 46.0867 141.478 46.13 141.088 46.13ZM149.675 40.527H147.673C147.63 41.5757 147.556 42.438 147.452 43.114C147.348 43.7813 147.184 44.3187 146.958 44.726H149.675V40.527ZM150.884 46H146.191L146.087 47.924H144.696V44.726H145.307C145.498 44.5527 145.65 44.3143 145.762 44.011C145.884 43.7077 145.979 43.3307 146.048 42.88C146.126 42.4293 146.183 41.905 146.217 41.307C146.252 40.709 146.287 40.0243 146.321 39.253H151.261V44.726H152.379V47.924H151.001L150.884 46ZM155.67 43.283H155.085V46H153.512V39.253H155.085V42.022H155.709L157.815 39.253H159.453L156.944 42.49L159.583 46H157.711L155.67 43.283ZM162.601 44.921C162.809 44.921 162.996 44.8907 163.16 44.83C163.325 44.7693 163.472 44.6957 163.602 44.609C163.741 44.5137 163.858 44.4097 163.953 44.297C164.057 44.1843 164.144 44.0717 164.213 43.959V42.932H163.446C162.796 42.932 162.333 43.0273 162.055 43.218C161.778 43.4087 161.639 43.6687 161.639 43.998C161.639 44.284 161.722 44.5093 161.886 44.674C162.051 44.8387 162.289 44.921 162.601 44.921ZM164.382 46C164.365 45.8873 164.343 45.74 164.317 45.558C164.3 45.376 164.287 45.2027 164.278 45.038C164.183 45.1767 164.07 45.311 163.94 45.441C163.81 45.571 163.659 45.688 163.485 45.792C163.312 45.896 163.113 45.9783 162.887 46.039C162.671 46.0997 162.428 46.13 162.159 46.13C161.873 46.13 161.6 46.0867 161.34 46C161.089 45.922 160.868 45.8007 160.677 45.636C160.487 45.4713 160.335 45.2677 160.222 45.025C160.118 44.7823 160.066 44.4963 160.066 44.167C160.066 43.439 160.335 42.8843 160.872 42.503C161.41 42.113 162.242 41.918 163.368 41.918H164.213V41.58C164.213 41.138 164.096 40.8347 163.862 40.67C163.628 40.4967 163.273 40.41 162.796 40.41C162.38 40.41 161.999 40.4663 161.652 40.579C161.314 40.6917 161.007 40.8217 160.729 40.969L160.404 39.721C160.682 39.5737 161.041 39.4393 161.483 39.318C161.934 39.188 162.432 39.123 162.978 39.123C163.871 39.123 164.564 39.3093 165.058 39.682C165.552 40.046 165.799 40.6353 165.799 41.45V44.908C165.799 44.986 165.799 45.077 165.799 45.181C165.808 45.2763 165.812 45.376 165.812 45.48C165.821 45.584 165.825 45.6837 165.825 45.779C165.834 45.8657 165.843 45.9393 165.851 46H164.382ZM169.895 43.556L168.27 46H166.762L169.128 42.516L166.97 39.253H168.764L170.246 41.476L171.624 39.253H173.145L171.013 42.516L173.314 46H171.52L169.895 43.556Z" fill="white"/>
<rect width="49.7039" height="22.6719" rx="11.336" transform="matrix(0.959703 0.281017 -0.189618 0.981858 259.299 8)" fill="#FFB800"/>
<path d="M269.425 18.6939L268.999 21.0742L270.204 21.4006C270.698 21.5344 271.113 21.5397 271.451 21.4165C271.797 21.2956 272.011 21.0048 272.094 20.5441C272.168 20.1261 272.081 19.8071 271.83 19.5873C271.582 19.3589 271.215 19.179 270.73 19.0475L269.425 18.6939ZM268.752 22.4563L268.279 25.1053L269.684 25.4862C270.236 25.6358 270.701 25.6632 271.077 25.5684C271.455 25.4651 271.69 25.1575 271.782 24.6457C271.868 24.1594 271.766 23.7782 271.473 23.5021C271.19 23.2197 270.71 22.9867 270.032 22.8031L268.752 22.4563ZM268.101 16.8996L270.786 17.6272C271.874 17.9219 272.671 18.3169 273.179 18.8123C273.689 19.2992 273.871 19.9479 273.726 20.7584C273.668 21.0826 273.571 21.3559 273.435 21.5784C273.3 21.7923 273.133 21.9662 272.934 22.1C272.744 22.2276 272.518 22.314 272.256 22.3592C272.002 22.4066 271.727 22.4216 271.432 22.4043C272.195 22.7004 272.744 23.0638 273.079 23.4946C273.423 23.9276 273.533 24.4853 273.412 25.1679C273.326 25.6456 273.161 26.0302 272.916 26.3216C272.672 26.6044 272.364 26.8072 271.992 26.9298C271.629 27.0462 271.212 27.0943 270.742 27.0743C270.274 27.0457 269.776 26.9601 269.249 26.8173L266.464 26.0624L268.101 16.8996ZM276.649 27.7088C276.85 27.7632 277.035 27.782 277.204 27.7654C277.374 27.7487 277.529 27.7148 277.67 27.6634C277.82 27.6059 277.952 27.5341 278.063 27.4481C278.184 27.3644 278.287 27.2762 278.374 27.1834L278.555 26.1724L277.814 25.9718C277.187 25.8018 276.723 25.7744 276.421 25.8895C276.12 26.0047 275.941 26.2244 275.883 26.5486C275.832 26.8301 275.872 27.0735 276.002 27.2786C276.132 27.4838 276.348 27.6272 276.649 27.7088ZM278.178 29.2368C278.181 29.1213 278.186 28.9706 278.193 28.7846C278.208 28.601 278.226 28.4269 278.247 28.2626C278.13 28.3741 277.998 28.4769 277.85 28.5709C277.701 28.6648 277.534 28.7403 277.349 28.7974C277.163 28.8544 276.956 28.8834 276.728 28.8841C276.508 28.8872 276.269 28.8536 276.009 28.7833C275.733 28.7085 275.478 28.5945 275.242 28.4411C275.013 28.2986 274.821 28.1214 274.666 27.9094C274.511 27.6974 274.4 27.4573 274.334 27.1889C274.277 26.9229 274.277 26.6277 274.335 26.3035C274.463 25.5869 274.82 25.1111 275.405 24.8763C275.993 24.6329 276.83 24.6585 277.917 24.9532L278.733 25.1742L278.792 24.8415C278.87 24.4064 278.811 24.0772 278.614 23.8539C278.418 23.6221 278.091 23.4438 277.631 23.3191C277.229 23.2103 276.851 23.1661 276.497 23.1863C276.151 23.2088 275.831 23.2563 275.537 23.3288L275.443 22.0153C275.737 21.9428 276.107 21.9046 276.555 21.9008C277.013 21.8907 277.506 21.957 278.033 22.0998C278.894 22.3333 279.531 22.698 279.942 23.1941C280.355 23.6816 280.489 24.3264 280.346 25.1283L279.738 28.5324C279.724 28.6092 279.708 28.6988 279.69 28.8011C279.681 28.8972 279.668 28.9965 279.65 29.0989C279.64 29.2035 279.626 29.3028 279.61 29.3966C279.603 29.4842 279.598 29.559 279.596 29.621L278.178 29.2368ZM283.29 30.7428C282.663 30.5728 282.156 30.3682 281.768 30.1292C281.39 29.8924 281.105 29.6678 280.915 29.4553L281.432 28.334C281.62 28.555 281.887 28.7794 282.232 29.0071C282.579 29.2262 282.999 29.4027 283.493 29.5364C283.861 29.6362 284.161 29.6504 284.393 29.5791C284.634 29.5015 284.781 29.322 284.831 29.0404C284.861 28.8698 284.843 28.7262 284.776 28.6097C284.718 28.4955 284.626 28.3946 284.502 28.3071C284.378 28.2112 284.227 28.1254 284.048 28.05C283.878 27.9682 283.696 27.8831 283.501 27.7946C283.258 27.6839 283.018 27.5562 282.78 27.4114C282.545 27.2581 282.339 27.0817 282.165 26.8823C281.991 26.6743 281.862 26.4382 281.778 26.1738C281.694 25.9095 281.683 25.6024 281.745 25.2526C281.86 24.6127 282.171 24.1737 282.678 23.9355C283.194 23.6996 283.866 23.6939 284.694 23.9183C285.187 24.052 285.606 24.2145 285.949 24.4058C286.293 24.5886 286.559 24.7681 286.747 24.9442L286.215 26.0075C286.027 25.8314 285.798 25.6664 285.527 25.5126C285.265 25.361 284.933 25.2308 284.531 25.122C284.105 25.0064 283.78 24.9811 283.558 25.0462C283.338 25.1027 283.204 25.2632 283.157 25.5276C283.132 25.6641 283.15 25.7852 283.21 25.891C283.272 25.9881 283.361 26.0793 283.477 26.1645C283.593 26.2497 283.732 26.332 283.893 26.4115C284.063 26.4932 284.245 26.5783 284.439 26.6669C284.681 26.7861 284.925 26.9192 285.171 27.0662C285.426 27.207 285.645 27.3783 285.829 27.58C286.02 27.7839 286.161 28.0278 286.25 28.3115C286.342 28.5866 286.352 28.9204 286.282 29.3128C286.21 29.7138 286.071 30.0293 285.863 30.2592C285.663 30.4914 285.423 30.6589 285.142 30.7615C284.87 30.8578 284.573 30.8982 284.252 30.8826C283.928 30.8755 283.608 30.8289 283.29 30.7428ZM289.302 24.4424C289.034 24.3699 288.824 24.2191 288.672 23.99C288.522 23.7525 288.469 23.5057 288.515 23.2498C288.562 22.9853 288.694 22.7884 288.91 22.6591C289.128 22.5213 289.37 22.4887 289.638 22.5612C289.906 22.6337 290.111 22.7876 290.253 23.0229C290.405 23.252 290.457 23.4987 290.41 23.7632C290.364 24.0191 290.232 24.216 290.015 24.3538C289.807 24.4854 289.57 24.5149 289.302 24.4424ZM289.923 25.456L288.736 32.0978L287.205 31.683L288.392 25.0412L289.923 25.456ZM293.442 33.5072C292.924 33.3666 292.465 33.1618 292.066 32.8926C291.666 32.6235 291.342 32.303 291.093 31.9314C290.845 31.5512 290.676 31.1251 290.585 30.6532C290.494 30.1813 290.497 29.6723 290.594 29.1263C290.69 28.5888 290.86 28.1295 291.104 27.7482C291.349 27.3584 291.648 27.0593 292.001 26.8509C292.355 26.6339 292.755 26.5052 293.201 26.465C293.648 26.4162 294.119 26.4587 294.612 26.5925C295.064 26.7149 295.448 26.8726 295.764 27.0656C296.09 27.2524 296.344 27.4509 296.526 27.6612L295.997 28.7791C295.803 28.5922 295.583 28.421 295.339 28.2654C295.105 28.1035 294.8 27.9716 294.423 27.8696C293.846 27.7132 293.358 27.7731 292.957 28.0493C292.559 28.3169 292.294 28.8176 292.163 29.5513C292.036 30.2594 292.112 30.8434 292.389 31.3032C292.666 31.763 293.11 32.0756 293.721 32.2411C294.064 32.334 294.364 32.3707 294.622 32.3511C294.88 32.3315 295.129 32.2872 295.37 32.2182L295.468 33.5061C295.225 33.5922 294.939 33.6445 294.611 33.663C294.284 33.6815 293.894 33.6296 293.442 33.5072Z" fill="white"/>
<rect width="102.944" height="22.6021" rx="11.301" transform="matrix(0.965318 0.261076 -0.204663 0.978832 189.626 17)" fill="#C447FF"/>
<path d="M223.835 33.9749L223.214 37.0457L224.269 37.3254C224.872 37.4853 225.37 37.4918 225.761 37.345C226.163 37.1919 226.423 36.8222 226.542 36.2361C226.645 35.7264 226.556 35.3136 226.276 34.9977C225.997 34.6733 225.552 34.43 224.941 34.2679L223.835 33.9749ZM222.935 38.4218L222.265 41.7347L220.669 41.3118L222.515 32.1886L225.216 32.9046C226.322 33.1976 227.136 33.646 227.658 34.2498C228.181 34.8536 228.344 35.6397 228.148 36.6081C228.04 37.1432 227.859 37.5786 227.606 37.9143C227.361 38.2521 227.058 38.5031 226.699 38.6673C226.339 38.8315 225.929 38.9154 225.469 38.9189C225.011 38.9139 224.519 38.8414 223.991 38.7016L222.935 38.4218ZM232.882 39.1515C232.408 39.0079 231.962 38.9658 231.544 39.0251C231.136 39.0781 230.795 39.2382 230.52 39.5055L229.672 43.6976L228.152 43.2947L229.489 36.6816L230.897 37.0546L230.706 38.454L230.731 38.4607C231.035 38.0937 231.394 37.8262 231.807 37.6584C232.231 37.4842 232.698 37.4425 233.21 37.5332L232.882 39.1515ZM236.911 39.7761C236.475 39.6606 236.089 39.6926 235.753 39.872C235.425 40.0535 235.163 40.3869 234.968 40.8722L237.971 41.6681C238.091 41.1629 238.051 40.7495 237.852 40.4281C237.66 40.1089 237.347 39.8915 236.911 39.7761ZM238.607 45.5284C238.559 45.5513 238.464 45.5801 238.325 45.6147C238.194 45.6516 238.02 45.6816 237.804 45.7048C237.597 45.7217 237.351 45.719 237.064 45.6967C236.775 45.6829 236.451 45.6283 236.091 45.5328C234.893 45.2154 234.057 44.6763 233.585 43.9155C233.12 43.157 232.998 42.2341 233.218 41.1468C233.326 40.6116 233.503 40.1527 233.748 39.7702C233.993 39.3876 234.287 39.0897 234.63 38.8764C234.975 38.6545 235.36 38.5193 235.785 38.4708C236.22 38.4159 236.676 38.4518 237.153 38.5783C237.639 38.7071 238.063 38.9044 238.424 39.1701C238.785 39.4358 239.058 39.7634 239.244 40.1528C239.439 40.5444 239.537 40.9956 239.54 41.5065C239.543 42.0173 239.429 42.578 239.2 43.1884L234.714 41.9996C234.655 42.5928 234.76 43.077 235.029 43.4524C235.305 43.8301 235.771 44.1054 236.424 44.2786C236.692 44.3497 236.939 44.3928 237.166 44.408C237.402 44.417 237.606 44.4129 237.777 44.3956C237.959 44.372 238.11 44.3449 238.231 44.3143C238.362 44.2775 238.457 44.2445 238.515 44.2153L238.607 45.5284ZM241.514 46.8358L239.994 46.4329L241.332 39.8198L242.739 40.1928L242.613 41.2737L242.638 41.2803C242.881 40.9957 243.189 40.7819 243.562 40.6392C243.944 40.4986 244.398 40.4983 244.926 40.6381C245.404 40.7647 245.788 40.9828 246.078 41.2924C246.368 41.6021 246.53 42.0029 246.563 42.495C246.83 42.1361 247.168 41.8812 247.578 41.7303C247.997 41.5816 248.466 41.5761 248.985 41.7138C249.58 41.8714 250.03 42.1743 250.337 42.6225C250.644 43.0706 250.726 43.6473 250.583 44.3523L249.645 48.9904L248.112 48.5841L249.009 44.1499C249.082 43.7846 249.044 43.4969 248.892 43.2867C248.742 43.0679 248.516 42.9186 248.215 42.8387C247.838 42.7388 247.511 42.7597 247.235 42.9014C246.961 43.0346 246.712 43.2192 246.488 43.4551L245.586 47.9148L244.053 47.5085L244.968 42.9851C245.042 42.6198 245 42.3448 244.843 42.1601C244.687 41.9753 244.462 41.8441 244.168 41.7664C243.783 41.6643 243.451 41.6702 243.172 41.7842C242.903 41.8919 242.657 42.0595 242.435 42.287L241.514 46.8358ZM253.526 42.2056C253.258 42.1345 253.05 41.9854 252.901 41.7582C252.755 41.5224 252.707 41.2772 252.759 41.0223C252.812 40.759 252.949 40.5625 253.169 40.433C253.392 40.295 253.637 40.2615 253.905 40.3325C254.173 40.4035 254.376 40.5558 254.514 40.7893C254.662 41.0165 254.71 41.2618 254.657 41.5252C254.605 41.78 254.468 41.9764 254.246 42.1145C254.034 42.2462 253.794 42.2766 253.526 42.2056ZM254.13 43.2114L252.792 49.8245L251.259 49.4182L252.597 42.8052L254.13 43.2114ZM258.823 50.3084C258.58 50.593 258.264 50.8045 257.874 50.9429C257.484 51.0812 257.013 51.0771 256.46 50.9306C255.84 50.7663 255.369 50.4536 255.047 49.9925C254.736 49.5251 254.654 48.9261 254.802 48.1956L255.724 43.634L257.27 44.0436L256.358 48.5542C256.32 48.7411 256.313 48.9049 256.338 49.0456C256.372 49.1801 256.428 49.2978 256.505 49.3987C256.591 49.4932 256.694 49.5742 256.813 49.6415C256.942 49.7025 257.078 49.7518 257.22 49.7896C257.614 49.8939 257.953 49.8945 258.239 49.7912C258.533 49.6901 258.792 49.5216 259.017 49.2857L259.934 44.7495L261.467 45.1558L260.13 51.7689L258.735 51.3992L258.848 50.315L258.823 50.3084ZM263.334 52.6179L261.813 52.215L263.151 45.6019L264.558 45.9749L264.432 47.0558L264.457 47.0624C264.7 46.7778 265.008 46.564 265.381 46.4213C265.763 46.2807 266.217 46.2804 266.745 46.4202C267.223 46.5468 267.607 46.7649 267.897 47.0745C268.188 47.3842 268.349 47.785 268.382 48.277C268.649 47.9181 268.987 47.6633 269.397 47.5124C269.816 47.3637 270.285 47.3582 270.804 47.4958C271.399 47.6535 271.85 47.9564 272.156 48.4045C272.463 48.8527 272.545 49.4293 272.402 50.1344L271.464 54.7725L269.931 54.3662L270.828 49.932C270.902 49.5667 270.863 49.279 270.711 49.0687C270.561 48.85 270.335 48.7007 270.034 48.6208C269.657 48.5209 269.33 48.5418 269.055 48.6835C268.78 48.8167 268.531 49.0013 268.307 49.2372L267.405 53.6969L265.872 53.2906L266.787 48.7672C266.861 48.4019 266.819 48.1269 266.662 47.9422C266.506 47.7574 266.281 47.6262 265.987 47.5485C265.602 47.4464 265.27 47.4523 264.991 47.5663C264.722 47.674 264.476 47.8416 264.254 48.069L263.334 52.6179Z" fill="white"/>
<path d="M206.299 29.8611L210.404 41.0134C210.434 41.0948 210.48 41.1672 210.538 41.225C210.596 41.2828 210.665 41.3245 210.74 41.3468C210.815 41.3691 210.893 41.3715 210.969 41.3537C211.044 41.3359 211.115 41.2985 211.177 41.2442L219.574 33.8303C219.656 33.7571 219.718 33.6569 219.749 33.543C219.781 33.4292 219.782 33.3071 219.752 33.1929L218.537 28.6401C218.512 28.546 218.467 28.4608 218.405 28.3926C218.343 28.3244 218.267 28.2754 218.184 28.2504L209.923 25.7803C209.839 25.7556 209.752 25.7556 209.669 25.7803C209.585 25.8051 209.509 25.8538 209.446 25.9219L206.42 29.2066C206.344 29.289 206.292 29.3957 206.27 29.5126C206.249 29.6296 206.259 29.7511 206.299 29.8611Z" stroke="white" stroke-width="0.5" stroke-linecap="round" stroke-linejoin="round"/>
<path d="M206.898 29.508L219.206 33.1883" stroke="white" stroke-width="0.5" stroke-linecap="round" stroke-linejoin="round"/>
<path d="M218.324 28.8714L215.982 32.2244L214.053 27.0154" stroke="white" stroke-width="0.5" stroke-linecap="round" stroke-linejoin="round"/>
<path d="M209.532 26.2426L210.121 30.4719L214.053 27.0154" stroke="white" stroke-width="0.5" stroke-linecap="round" stroke-linejoin="round"/>
<path d="M210.894 40.6802L210.121 30.4719" stroke="white" stroke-width="0.5" stroke-linecap="round" stroke-linejoin="round"/>
<path d="M210.894 40.6802L215.982 32.2244" stroke="white" stroke-width="0.5" stroke-linecap="round" stroke-linejoin="round"/>
<rect width="48.344" height="25.1897" rx="12.5948" transform="matrix(0.966729 0.255804 -0.208991 0.977918 208.264 -7)" fill="#00B327"/>
<path d="M220.529 3.89645L222.133 4.28913L220.599 12.043L224.425 12.9798L224.153 14.3571L218.723 13.0276L220.529 3.89645ZM227.753 7.45691C227.483 7.39095 227.274 7.24602 227.124 7.02213C226.976 6.78974 226.927 6.54602 226.977 6.29096C227.029 6.02739 227.166 5.82902 227.386 5.69582C227.608 5.55413 227.854 5.51626 228.124 5.58222C228.393 5.64819 228.597 5.79633 228.737 6.02666C228.887 6.25055 228.936 6.49428 228.884 6.75784C228.833 7.0129 228.697 7.21128 228.475 7.35297C228.263 7.48823 228.022 7.52288 227.753 7.45691ZM228.364 8.44896L227.055 15.0678L225.515 14.6905L226.824 8.07174L228.364 8.44896ZM232.508 16.2026C232.33 16.2569 232.1 16.2809 231.819 16.2744C231.546 16.27 231.267 16.2328 230.981 16.1627C230.627 16.0761 230.329 15.9541 230.087 15.7967C229.854 15.6329 229.675 15.4463 229.549 15.2371C229.422 15.0279 229.344 14.7993 229.314 14.5512C229.283 14.303 229.295 14.043 229.349 13.7709L230.06 10.1746L229.277 9.98285L229.524 8.73306L230.307 8.92476L230.582 7.53469L232.123 7.91191L231.848 9.30198L233.716 9.75959L233.469 11.0094L231.6 10.5518L230.922 13.9823C230.818 14.5095 231.014 14.8338 231.511 14.9554C231.687 14.9987 231.861 15.0144 232.031 15.0026C232.201 14.9908 232.356 14.9663 232.495 14.9292L232.508 16.2026ZM237.592 11.8316C237.154 11.7244 236.767 11.7633 236.43 11.9483C236.102 12.1353 235.841 12.4726 235.647 12.96L238.665 13.699C238.783 13.193 238.741 12.7816 238.539 12.4647C238.345 12.1498 238.029 11.9388 237.592 11.8316ZM239.323 17.5369C239.274 17.5606 239.18 17.591 239.04 17.6281C238.909 17.6673 238.734 17.7004 238.517 17.7274C238.31 17.748 238.063 17.7498 237.775 17.7328C237.485 17.7243 237.159 17.6757 236.798 17.5871C235.594 17.2923 234.753 16.77 234.274 16.02C233.805 15.272 233.677 14.3539 233.892 13.2657C233.998 12.73 234.173 12.2693 234.417 11.8833C234.661 11.4974 234.955 11.1949 235.298 10.976C235.644 10.7485 236.029 10.6067 236.455 10.5505C236.891 10.4879 237.349 10.5154 237.829 10.6328C238.317 10.7524 238.743 10.9414 239.107 11.1998C239.47 11.4582 239.746 11.7799 239.935 12.1648C240.132 12.5518 240.233 13 240.238 13.5093C240.244 14.0187 240.133 14.5798 239.905 15.1927L235.398 14.0889C235.342 14.6814 235.45 15.1624 235.721 15.5319C236.001 15.9034 236.469 16.1696 237.125 16.3304C237.395 16.3963 237.643 16.4348 237.87 16.4459C238.108 16.4506 238.312 16.4427 238.484 16.4224C238.666 16.3956 238.817 16.3658 238.939 16.3331C239.07 16.2939 239.165 16.2593 239.224 16.2292L239.323 17.5369Z" fill="white"/>
</g>
<defs>
<filter id="filter0_d_43_217" x="-1" y="0" width="313" height="75" filterUnits="userSpaceOnUse" color-interpolation-filters="sRGB">
<feFlood flood-opacity="0" result="BackgroundImageFix"/>
<feColorMatrix in="SourceAlpha" type="matrix" values="0 0 0 0 0 0 0 0 0 0 0 0 0 0 0 0 0 0 127 0" result="hardAlpha"/>
<feOffset dx="3" dy="4"/>
<feGaussianBlur stdDeviation="2"/>
<feComposite in2="hardAlpha" operator="out"/>
<feColorMatrix type="matrix" values="0 0 0 0 0 0 0 0 0 0 0 0 0 0 0 0 0 0 0.25 0"/>
<feBlend mode="normal" in2="BackgroundImageFix" result="effect1_dropShadow_43_217"/>
<feBlend mode="normal" in="SourceGraphic" in2="effect1_dropShadow_43_217" result="shape"/>
</filter>
<linearGradient id="paint0_linear_43_217" x1="73" y1="-6.99999" x2="81.5" y2="54" gradientUnits="userSpaceOnUse">
<stop stop-color="#0500FF"/>
<stop offset="1" stop-color="#6F00FF"/>
</linearGradient>
<clipPath id="clip0_43_217">
<rect width="311" height="73" fill="white"/>
</clipPath>
</defs>
</svg>
