<svg width="25" height="25" viewBox="0 0 25 25" fill="none" xmlns="http://www.w3.org/2000/svg">
<path d="M13.8338 13.0524L9.73325 17.1539C9.66071 17.2265 9.57459 17.284 9.47981 17.3233C9.38503 17.3626 9.28344 17.3828 9.18085 17.3828C9.07825 17.3828 8.97666 17.3626 8.88187 17.3234C8.78708 17.2841 8.70095 17.2266 8.62839 17.154C8.55584 17.0815 8.49828 16.9954 8.45901 16.9006C8.41974 16.8058 8.39952 16.7042 8.39951 16.6016C8.3995 16.4991 8.4197 16.3975 8.45895 16.3027C8.4982 16.2079 8.55574 16.1217 8.62827 16.0492L11.3955 13.2812H2.34375C2.13655 13.2812 1.93784 13.1989 1.79132 13.0524C1.64481 12.9059 1.5625 12.7072 1.5625 12.5C1.5625 12.2928 1.64481 12.0941 1.79132 11.9476C1.93784 11.8011 2.13655 11.7188 2.34375 11.7188H11.3955L8.62827 8.95081C8.48178 8.80428 8.39949 8.60555 8.39951 8.39835C8.39953 8.19115 8.48186 7.99245 8.62839 7.84595C8.77492 7.69945 8.97364 7.61716 9.18085 7.61719C9.38805 7.61721 9.58675 7.69954 9.73325 7.84607L13.8338 11.9476C13.9802 12.0941 14.0625 12.2928 14.0625 12.5C14.0625 12.7072 13.9802 12.9059 13.8338 13.0524ZM18.75 3.125H13.2812C13.074 3.125 12.8753 3.20731 12.7288 3.35382C12.5823 3.50034 12.5 3.69905 12.5 3.90625C12.5 4.11345 12.5823 4.31216 12.7288 4.45868C12.8753 4.60519 13.074 4.6875 13.2812 4.6875H18.75V20.3125H13.2812C13.074 20.3125 12.8753 20.3948 12.7288 20.5413C12.5823 20.6878 12.5 20.8865 12.5 21.0938C12.5 21.301 12.5823 21.4997 12.7288 21.6462C12.8753 21.7927 13.074 21.875 13.2812 21.875H18.75C19.1643 21.8745 19.5614 21.7098 19.8543 21.4168C20.1473 21.1239 20.312 20.7268 20.3125 20.3125V4.6875C20.312 4.27324 20.1473 3.87609 19.8543 3.58317C19.5614 3.29025 19.1643 3.12547 18.75 3.125Z" fill="#535353"/>
</svg>
