<svg width="34" height="34" viewBox="0 0 34 34" fill="none" xmlns="http://www.w3.org/2000/svg">
<g clip-path="url(#clip0_47_817)">
<path d="M11.3335 12.75H9.91683C9.16538 12.75 8.44471 13.0485 7.91336 13.5799C7.38201 14.1112 7.0835 14.8319 7.0835 15.5833V26.9167C7.0835 27.6681 7.38201 28.3888 7.91336 28.9201C8.44471 29.4515 9.16538 29.75 9.91683 29.75H24.0835C24.8349 29.75 25.5556 29.4515 26.087 28.9201C26.6183 28.3888 26.9168 27.6681 26.9168 26.9167V15.5833C26.9168 14.8319 26.6183 14.1112 26.087 13.5799C25.5556 13.0485 24.8349 12.75 24.0835 12.75H22.6668" stroke="#535353" stroke-width="1.83333" stroke-linecap="round" stroke-linejoin="round"/>
<path d="M17 19.8333V4.25" stroke="#535353" stroke-width="1.83333" stroke-linecap="round" stroke-linejoin="round"/>
<path d="M12.75 8.5L17 4.25L21.25 8.5" stroke="#535353" stroke-width="1.83333" stroke-linecap="round" stroke-linejoin="round"/>
</g>
<defs>
<clipPath id="clip0_47_817">
<rect width="34" height="34" fill="white"/>
</clipPath>
</defs>
</svg>
