<svg width="46" height="46" viewBox="0 0 46 46" fill="none" xmlns="http://www.w3.org/2000/svg">
<circle cx="23" cy="23" r="23" fill="#059C3C"/>
<path d="M32 19V17H18V19H32ZM32 27V22H18V27H32ZM32 15C32.5304 15 33.0391 15.2107 33.4142 15.5858C33.7893 15.9609 34 16.4696 34 17V27C34 27.5304 33.7893 28.0391 33.4142 28.4142C33.0391 28.7893 32.5304 29 32 29H18C16.89 29 16 28.1 16 27V17C16 15.89 16.89 15 18 15H32ZM14 31H29V33H14C13.4696 33 12.9609 32.7893 12.5858 32.4142C12.2107 32.0391 12 31.5304 12 31V20H14V31Z" fill="white"/>
</svg>
